<svg id="cutting"  viewBox="0 0 22 22" fill="none" xmlns="http://www.w3.org/2000/svg">
<path d="M7.86942 9.26074L1 14.0432L5.2173 16.9997L9.43461 13.8693" stroke="#7D7D7D" stroke-width="0.5" stroke-miterlimit="10" stroke-linecap="round" stroke-linejoin="round"/>
<path d="M12.7421 13.8693L6.74219 18.0431L11.003 20.9996L21.0028 14.0432L14.1333 9.26074" stroke="#7D7D7D" stroke-width="0.5" stroke-miterlimit="10" stroke-linecap="round" stroke-linejoin="round"/>
<path d="M8.82593 6.21727L6.65206 4.04341V1H1" stroke="#7D7D7D" stroke-width="0.5" stroke-miterlimit="10" stroke-linecap="round" stroke-linejoin="round"/>
<path d="M20.9982 1H15.3462V4.04341L13.1723 6.21727H10.1289" stroke="#7D7D7D" stroke-width="0.5" stroke-miterlimit="10" stroke-linecap="round" stroke-linejoin="round"/>
<path d="M2.73909 19.2607H1V20.9998H2.73909V19.2607Z" stroke="#7D7D7D" stroke-width="0.5" stroke-miterlimit="10" stroke-linecap="round" stroke-linejoin="round"/>
<path d="M19.257 20.999H20.9961V19.2599H19.257V20.999Z" stroke="#7D7D7D" stroke-width="0.5" stroke-miterlimit="10" stroke-linecap="round" stroke-linejoin="round"/>
<path d="M2.73909 7.08691H1V8.826H2.73909V7.08691Z" stroke="#7D7D7D" stroke-width="0.5" stroke-miterlimit="10" stroke-linecap="round" stroke-linejoin="round"/>
<path d="M19.257 8.82617H20.9961V7.08708H19.257V8.82617Z" stroke="#7D7D7D" stroke-width="0.5" stroke-miterlimit="10" stroke-linecap="round" stroke-linejoin="round"/>
<path d="M15.3469 13.8691H12.7383" stroke="#7D7D7D" stroke-width="0.5" stroke-miterlimit="10" stroke-linecap="round" stroke-linejoin="round"/>
<path d="M9.43217 13.8691H6.21484" stroke="#7D7D7D" stroke-width="0.5" stroke-miterlimit="10" stroke-linecap="round" stroke-linejoin="round"/>
<path d="M9.34609 12.6083L7.47656 11.6953" stroke="#7D7D7D" stroke-width="0.5" stroke-miterlimit="10" stroke-linecap="round" stroke-linejoin="round"/>
<path d="M14.5219 11.6953L12.6523 12.6083" stroke="#7D7D7D" stroke-width="0.5" stroke-miterlimit="10" stroke-linecap="round" stroke-linejoin="round"/>
<path d="M11 9.69629V13.1745" stroke="#7D7D7D" stroke-width="0.5" stroke-miterlimit="10" stroke-linecap="round" stroke-linejoin="round"/>
<path d="M8.82422 6.2168V8.39066L10.4764 9.69498H11.5633L13.172 8.39066V6.2168" stroke="#7D7D7D" stroke-width="0.5" stroke-miterlimit="10" stroke-linecap="round" stroke-linejoin="round"/>
</svg>
